STARTFONT 2.1
FONT -Adobe-Times-Medium-I-Normal--14-140-75-75-P-73-ISO8859-2
SIZE 14 75 75
FONTBOUNDINGBOX 17 18 -3 -4
COMMENT $XConsortium: timI14.bdf,v 1.14 95/01/26 18:06:52 gildea Exp $
COMMENT 
COMMENT +
COMMENT  Copyright 1984-1989, 1994 Adobe Systems Incorporated.
COMMENT  Copyright 1988, 1994 Digital Equipment Corporation.
COMMENT
COMMENT  Adobe is a trademark of Adobe Systems Incorporated which may be
COMMENT  registered in certain jurisdictions.
COMMENT  Permission to use these trademarks is hereby granted only in
COMMENT  association with the images described in this file.
COMMENT
COMMENT  Permission to use, copy, modify, distribute and sell this software
COMMENT  and its documentation for any purpose and without fee is hereby
COMMENT  granted, provided that the above copyright notices appear in all
COMMENT  copies and that both those copyright notices and this permission
COMMENT  notice appear in supporting documentation, and that the names of
COMMENT  Adobe Systems and Digital Equipment Corporation not be used in
COMMENT  advertising or publicity pertaining to distribution of the software
COMMENT  without specific, written prior permission.  Adobe Systems and
COMMENT  Digital Equipment Corporation make no representations about the
COMMENT  suitability of this software for any purpose.  It is provided "as
COMMENT  is" without express or implied warranty.
COMMENT -
COMMENT  
COMMENT  Translation to ISO8859-2 by Cub Soft;  Petr.Kolar@vslib.cz
COMMENT  
STARTPROPERTIES 28
FOUNDRY "Adobe"
FAMILY_NAME "Times"
WEIGHT_NAME "Medium"
SLANT "I"
SETWIDTH_NAME "Normal"
ADD_STYLE_NAME ""
PIXEL_SIZE 14
POINT_SIZE 140
RESOLUTION_X 75
RESOLUTION_Y 75
SPACING "P"
AVERAGE_WIDTH 73
CHARSET_REGISTRY "ISO8859"
CHARSET_ENCODING "2"
CAP_HEIGHT 10
X_HEIGHT 7
FONT_ASCENT 12
FONT_DESCENT 3
FACE_NAME "Times Italic"

STARTCHAR space
ENCODING 32
SWIDTH 250 0
DWIDTH 3 0
BBX 1 1 0 0
BITMAP
00
ENDCHAR
STARTCHAR exclam
ENCODING 33
SWIDTH 333 0
DWIDTH 5 0
BBX 4 10 1 0
BITMAP
10
10
10
20
20
20
40
40
00
80
ENDCHAR
STARTCHAR quotedbl
ENCODING 34
SWIDTH 420 0
DWIDTH 6 0
BBX 7 4 0 6
BITMAP
36
6c
48
90
ENDCHAR
STARTCHAR numbersign
ENCODING 35
SWIDTH 500 0
DWIDTH 7 0
BBX 7 10 0 0
BITMAP
14
14
14
7e
28
28
fc
50
50
50
ENDCHAR
STARTCHAR dollar
ENCODING 36
SWIDTH 500 0
DWIDTH 7 0
BBX 7 12 0 -1
BITMAP
04
1c
2a
2a
28
18
14
14
a4
a8
78
20
ENDCHAR
STARTCHAR percent
ENCODING 37
SWIDTH 833 0
DWIDTH 12 0
BBX 11 10 0 0
BITMAP
3880
4f80
8900
9200
6400
04c0
0920
1220
1240
2180
ENDCHAR
STARTCHAR ampersand
ENCODING 38
SWIDTH 778 0
DWIDTH 11 0
BBX 9 10 0 0
BITMAP
0c00
1200
1200
1c00
3980
4900
8a00
8400
8e80
7300
ENDCHAR
STARTCHAR apostrophe
ENCODING 39
SWIDTH 333 0
DWIDTH 5 0
BBX 2 3 2 7
BITMAP
c0
40
80
ENDCHAR
STARTCHAR parenleft
ENCODING 40
SWIDTH 333 0
DWIDTH 5 0
BBX 4 13 0 -3
BITMAP
10
20
20
40
40
40
80
80
80
80
80
80
40
ENDCHAR
STARTCHAR parenright
ENCODING 41
SWIDTH 333 0
DWIDTH 5 0
BBX 4 13 0 -3
BITMAP
20
10
10
10
10
10
10
20
20
20
40
40
80
ENDCHAR
STARTCHAR asterisk
ENCODING 42
SWIDTH 500 0
DWIDTH 7 0
BBX 5 5 1 5
BITMAP
20
a8
70
a8
20
ENDCHAR
STARTCHAR plus
ENCODING 43
SWIDTH 675 0
DWIDTH 10 0
BBX 7 7 1 0
BITMAP
10
10
10
fe
10
10
10
ENDCHAR
STARTCHAR comma
ENCODING 44
SWIDTH 250 0
DWIDTH 4 0
BBX 2 3 0 -1
BITMAP
c0
40
80
ENDCHAR
STARTCHAR minus
ENCODING 45
SWIDTH 675 0
DWIDTH 9 0
BBX 6 1 1 3
BITMAP
fc
ENDCHAR
STARTCHAR period
ENCODING 46
SWIDTH 250 0
DWIDTH 3 0
BBX 1 2 0 0
BITMAP
80
80
ENDCHAR
STARTCHAR slash
ENCODING 47
SWIDTH 278 0
DWIDTH 4 0
BBX 5 10 -1 0
BITMAP
08
08
10
10
20
20
40
40
80
80
ENDCHAR
STARTCHAR zero
ENCODING 48
SWIDTH 500 0
DWIDTH 7 0
BBX 6 10 0 0
BITMAP
18
24
44
44
84
84
88
88
90
60
ENDCHAR
STARTCHAR one
ENCODING 49
SWIDTH 500 0
DWIDTH 7 0
BBX 4 10 1 0
BITMAP
30
10
10
20
20
20
40
40
40
e0
ENDCHAR
STARTCHAR two
ENCODING 50
SWIDTH 500 0
DWIDTH 7 0
BBX 6 10 0 0
BITMAP
38
44
04
04
08
10
20
40
88
f8
ENDCHAR
STARTCHAR three
ENCODING 51
SWIDTH 500 0
DWIDTH 7 0
BBX 6 10 0 0
BITMAP
18
24
04
08
30
08
08
08
90
60
ENDCHAR
STARTCHAR four
ENCODING 52
SWIDTH 500 0
DWIDTH 7 0
BBX 6 10 0 0
BITMAP
04
0c
14
28
48
90
fc
10
20
20
ENDCHAR
STARTCHAR five
ENCODING 53
SWIDTH 500 0
DWIDTH 7 0
BBX 6 10 0 0
BITMAP
3c
40
40
70
18
08
08
08
90
e0
ENDCHAR
STARTCHAR six
ENCODING 54
SWIDTH 500 0
DWIDTH 7 0
BBX 6 10 0 0
BITMAP
0c
30
40
40
f0
88
88
88
d0
60
ENDCHAR
STARTCHAR seven
ENCODING 55
SWIDTH 500 0
DWIDTH 7 0
BBX 6 10 1 0
BITMAP
7c
84
08
08
10
20
20
40
80
80
ENDCHAR
STARTCHAR eight
ENCODING 56
SWIDTH 500 0
DWIDTH 7 0
BBX 6 10 0 0
BITMAP
18
24
44
28
30
50
88
88
90
60
ENDCHAR
STARTCHAR nine
ENCODING 57
SWIDTH 500 0
DWIDTH 7 0
BBX 6 10 0 0
BITMAP
18
2c
44
44
4c
34
08
08
30
c0
ENDCHAR
STARTCHAR colon
ENCODING 58
SWIDTH 333 0
DWIDTH 4 0
BBX 2 7 1 0
BITMAP
40
40
00
00
00
80
80
ENDCHAR
STARTCHAR semicolon
ENCODING 59
SWIDTH 333 0
DWIDTH 4 0
BBX 3 8 0 -1
BITMAP
20
20
00
00
00
c0
40
80
ENDCHAR
STARTCHAR less
ENCODING 60
SWIDTH 675 0
DWIDTH 10 0
BBX 7 7 1 0
BITMAP
06
18
20
c0
20
18
06
ENDCHAR
STARTCHAR equal
ENCODING 61
SWIDTH 675 0
DWIDTH 10 0
BBX 7 3 1 2
BITMAP
fe
00
fe
ENDCHAR
STARTCHAR greater
ENCODING 62
SWIDTH 675 0
DWIDTH 10 0
BBX 7 7 2 0
BITMAP
c0
30
08
06
08
30
c0
ENDCHAR
STARTCHAR question
ENCODING 63
SWIDTH 500 0
DWIDTH 7 0
BBX 4 10 2 0
BITMAP
60
90
90
10
20
40
80
80
00
80
ENDCHAR
STARTCHAR at
ENCODING 64
SWIDTH 920 0
DWIDTH 13 0
BBX 12 13 0 -3
BITMAP
0780
1860
2020
4390
4c90
8890
9110
9310
9520
48c0
4000
3040
0f80
ENDCHAR
STARTCHAR A
ENCODING 65
SWIDTH 611 0
DWIDTH 9 0
BBX 9 10 -1 0
BITMAP
0100
0300
0500
0900
0900
1100
3f00
2100
4100
e380
ENDCHAR
STARTCHAR B
ENCODING 66
SWIDTH 611 0
DWIDTH 8 0
BBX 9 10 -1 0
BITMAP
3f00
1080
1080
2100
3e00
2300
4100
4100
4200
fc00
ENDCHAR
STARTCHAR C
ENCODING 67
SWIDTH 667 0
DWIDTH 9 0
BBX 9 10 1 0
BITMAP
1e80
3100
4100
4000
8000
8000
8000
8000
c400
7800
ENDCHAR
STARTCHAR D
ENCODING 68
SWIDTH 722 0
DWIDTH 10 0
BBX 9 10 0 0
BITMAP
3f00
1180
1080
2080
2080
2080
4100
4100
4600
f800
ENDCHAR
STARTCHAR E
ENCODING 69
SWIDTH 611 0
DWIDTH 9 0
BBX 9 10 0 0
BITMAP
3f80
1080
1000
2200
3e00
2400
4000
4000
4100
fe00
ENDCHAR
STARTCHAR F
ENCODING 70
SWIDTH 611 0
DWIDTH 9 0
BBX 9 10 0 0
BITMAP
3f80
1080
1000
2200
3e00
2400
4000
4000
4000
e000
ENDCHAR
STARTCHAR G
ENCODING 71
SWIDTH 722 0
DWIDTH 10 0
BBX 9 10 1 0
BITMAP
1e80
3100
4100
4000
8000
8700
8200
8200
c400
7800
ENDCHAR
STARTCHAR H
ENCODING 72
SWIDTH 722 0
DWIDTH 10 0
BBX 10 10 0 0
BITMAP
39c0
1080
1080
2100
3f00
2100
4200
4200
4200
e700
ENDCHAR
STARTCHAR I
ENCODING 73
SWIDTH 333 0
DWIDTH 5 0
BBX 5 10 0 0
BITMAP
38
10
10
20
20
20
40
40
40
e0
ENDCHAR
STARTCHAR J
ENCODING 74
SWIDTH 444 0
DWIDTH 6 0
BBX 6 10 0 0
BITMAP
1c
08
08
10
10
10
20
20
a0
c0
ENDCHAR
STARTCHAR K
ENCODING 75
SWIDTH 667 0
DWIDTH 10 0
BBX 10 10 0 0
BITMAP
39c0
1100
1200
2400
3800
2800
4400
4200
4100
e380
ENDCHAR
STARTCHAR L
ENCODING 76
SWIDTH 556 0
DWIDTH 8 0
BBX 7 10 0 0
BITMAP
38
10
10
20
20
20
40
40
42
fc
ENDCHAR
STARTCHAR M
ENCODING 77
SWIDTH 833 0
DWIDTH 12 0
BBX 12 10 0 0
BITMAP
3070
1060
18a0
2940
2940
2a40
4a80
4c80
4880
e9c0
ENDCHAR
STARTCHAR N
ENCODING 78
SWIDTH 667 0
DWIDTH 11 0
BBX 11 10 0 0
BITMAP
30e0
1040
1040
2880
2880
2480
4500
4500
4300
e100
ENDCHAR
STARTCHAR O
ENCODING 79
SWIDTH 722 0
DWIDTH 10 0
BBX 9 10 0 0
BITMAP
0e00
3100
6080
4080
c080
8180
8100
8300
4600
3800
ENDCHAR
STARTCHAR P
ENCODING 80
SWIDTH 611 0
DWIDTH 9 0
BBX 9 10 0 0
BITMAP
3f00
1080
1080
2100
3e00
2000
4000
4000
4000
e000
ENDCHAR
STARTCHAR Q
ENCODING 81
SWIDTH 722 0
DWIDTH 10 0
BBX 9 13 0 -3
BITMAP
0e00
3100
6080
4080
c080
8180
8100
8300
4600
3800
2000
4100
fe00
ENDCHAR
STARTCHAR R
ENCODING 82
SWIDTH 611 0
DWIDTH 9 0
BBX 9 10 0 0
BITMAP
3f00
1080
1080
2100
3e00
2800
4400
4400
4200
e300
ENDCHAR
STARTCHAR S
ENCODING 83
SWIDTH 500 0
DWIDTH 7 0
BBX 7 10 0 0
BITMAP
1a
26
22
20
10
08
04
84
c4
b8
ENDCHAR
STARTCHAR T
ENCODING 84
SWIDTH 556 0
DWIDTH 8 0
BBX 7 10 1 0
BITMAP
fe
92
10
20
20
20
40
40
40
e0
ENDCHAR
STARTCHAR U
ENCODING 85
SWIDTH 722 0
DWIDTH 10 0
BBX 10 10 1 0
BITMAP
79c0
2080
2100
4100
4100
4200
8200
8200
8400
7800
ENDCHAR
STARTCHAR V
ENCODING 86
SWIDTH 611 0
DWIDTH 9 0
BBX 9 10 1 0
BITMAP
e380
4100
4200
4200
4400
4800
4800
5000
6000
4000
ENDCHAR
STARTCHAR W
ENCODING 87
SWIDTH 833 0
DWIDTH 11 0
BBX 12 10 0 0
BITMAP
ee70
4420
4440
4440
4440
2a80
2a80
3300
3300
2200
ENDCHAR
STARTCHAR X
ENCODING 88
SWIDTH 611 0
DWIDTH 9 0
BBX 9 10 0 0
BITMAP
7380
2100
1200
1400
0800
0800
1400
2400
4200
e700
ENDCHAR
STARTCHAR Y
ENCODING 89
SWIDTH 556 0
DWIDTH 8 0
BBX 9 10 0 0
BITMAP
e380
4100
2200
1400
1800
1000
1000
2000
2000
7000
ENDCHAR
STARTCHAR Z
ENCODING 90
SWIDTH 556 0
DWIDTH 8 0
BBX 8 10 0 0
BITMAP
7f
41
02
04
08
10
20
40
82
fe
ENDCHAR
STARTCHAR bracketleft
ENCODING 91
SWIDTH 389 0
DWIDTH 6 0
BBX 6 13 0 -3
BITMAP
1c
10
10
20
20
20
40
40
40
80
80
80
e0
ENDCHAR
STARTCHAR backslash
ENCODING 92
SWIDTH 278 0
DWIDTH 4 0
BBX 4 10 0 0
BITMAP
80
80
80
40
40
20
20
10
10
10
ENDCHAR
STARTCHAR bracketright
ENCODING 93
SWIDTH 389 0
DWIDTH 6 0
BBX 6 13 -1 -3
BITMAP
1c
04
04
08
08
08
10
10
10
20
20
20
e0
ENDCHAR
STARTCHAR asciicircum
ENCODING 94
SWIDTH 422 0
DWIDTH 6 0
BBX 5 5 1 5
BITMAP
20
70
50
88
88
ENDCHAR
STARTCHAR underscore
ENCODING 95
SWIDTH 500 0
DWIDTH 7 0
BBX 8 1 -2 -4
BITMAP
ff
ENDCHAR
STARTCHAR grave
ENCODING 96
SWIDTH 333 0
DWIDTH 5 0
BBX 3 3 1 8
BITMAP
80
c0
20
ENDCHAR
STARTCHAR a
ENCODING 97
SWIDTH 500 0
DWIDTH 7 0
BBX 7 7 0 0
BITMAP
1a
6c
44
88
98
aa
4c
ENDCHAR
STARTCHAR b
ENCODING 98
SWIDTH 500 0
DWIDTH 7 0
BBX 6 10 0 0
BITMAP
30
10
20
28
74
44
44
88
d8
60
ENDCHAR
STARTCHAR c
ENCODING 99
SWIDTH 444 0
DWIDTH 6 0
BBX 6 7 0 0
BITMAP
1c
64
40
80
80
c8
70
ENDCHAR
STARTCHAR d
ENCODING 100
SWIDTH 500 0
DWIDTH 7 0
BBX 7 10 0 0
BITMAP
06
02
04
34
4c
88
88
90
b4
58
ENDCHAR
STARTCHAR e
ENCODING 101
SWIDTH 444 0
DWIDTH 7 0
BBX 6 7 0 0
BITMAP
18
64
4c
f0
80
c8
70
ENDCHAR
STARTCHAR f
ENCODING 102
SWIDTH 278 0
DWIDTH 5 0
BBX 8 13 -2 -3
BITMAP
03
05
04
1e
08
08
10
10
10
20
20
a0
c0
ENDCHAR
STARTCHAR g
ENCODING 103
SWIDTH 500 0
DWIDTH 6 0
BBX 7 10 -1 -3
BITMAP
1e
24
44
48
30
40
70
88
88
70
ENDCHAR
STARTCHAR h
ENCODING 104
SWIDTH 500 0
DWIDTH 7 0
BBX 6 10 0 0
BITMAP
30
10
10
2c
34
64
48
48
94
88
ENDCHAR
STARTCHAR i
ENCODING 105
SWIDTH 278 0
DWIDTH 4 0
BBX 4 10 0 0
BITMAP
10
00
00
60
20
40
40
80
a0
40
ENDCHAR
STARTCHAR j
ENCODING 106
SWIDTH 278 0
DWIDTH 4 0
BBX 6 13 -2 -3
BITMAP
04
00
00
18
08
08
10
10
10
20
20
a0
c0
ENDCHAR
STARTCHAR k
ENCODING 107
SWIDTH 444 0
DWIDTH 7 0
BBX 7 10 0 0
BITMAP
30
10
10
26
24
78
50
50
94
88
ENDCHAR
STARTCHAR l
ENCODING 108
SWIDTH 278 0
DWIDTH 4 0
BBX 4 10 0 0
BITMAP
30
10
20
20
40
40
40
80
a0
40
ENDCHAR
STARTCHAR m
ENCODING 109
SWIDTH 722 0
DWIDTH 10 0
BBX 9 7 0 0
BITMAP
ed80
3680
6480
4900
4900
9280
9100
ENDCHAR
STARTCHAR n
ENCODING 110
SWIDTH 500 0
DWIDTH 7 0
BBX 6 7 0 0
BITMAP
6c
34
64
48
48
94
88
ENDCHAR
STARTCHAR o
ENCODING 111
SWIDTH 500 0
DWIDTH 7 0
BBX 6 7 0 0
BITMAP
18
6c
44
84
88
d8
60
ENDCHAR
STARTCHAR p
ENCODING 112
SWIDTH 500 0
DWIDTH 7 0
BBX 8 10 -2 -3
BITMAP
36
19
11
11
22
26
38
40
40
e0
ENDCHAR
STARTCHAR q
ENCODING 113
SWIDTH 500 0
DWIDTH 7 0
BBX 7 10 0 -3
BITMAP
1a
24
44
48
88
90
70
10
20
70
ENDCHAR
STARTCHAR r
ENCODING 114
SWIDTH 389 0
DWIDTH 5 0
BBX 5 7 0 0
BITMAP
58
20
40
40
80
80
80
ENDCHAR
STARTCHAR s
ENCODING 115
SWIDTH 389 0
DWIDTH 6 0
BBX 5 7 0 0
BITMAP
38
48
40
20
10
90
e0
ENDCHAR
STARTCHAR t
ENCODING 116
SWIDTH 278 0
DWIDTH 5 0
BBX 5 9 0 0
BITMAP
10
10
78
20
40
40
80
a0
c0
ENDCHAR
STARTCHAR u
ENCODING 117
SWIDTH 500 0
DWIDTH 7 0
BBX 6 7 0 0
BITMAP
64
24
48
48
90
b4
d8
ENDCHAR
STARTCHAR v
ENCODING 118
SWIDTH 444 0
DWIDTH 6 0
BBX 6 7 0 0
BITMAP
cc
44
48
48
50
60
40
ENDCHAR
STARTCHAR w
ENCODING 119
SWIDTH 667 0
DWIDTH 9 0
BBX 9 7 0 0
BITMAP
c980
4900
4900
4a00
5a00
6c00
4800
ENDCHAR
STARTCHAR x
ENCODING 120
SWIDTH 444 0
DWIDTH 7 0
BBX 7 7 -1 0
BITMAP
66
24
18
10
28
4a
c4
ENDCHAR
STARTCHAR y
ENCODING 121
SWIDTH 444 0
DWIDTH 7 0
BBX 7 10 -1 -3
BITMAP
66
22
22
24
24
28
10
10
a0
c0
ENDCHAR
STARTCHAR z
ENCODING 122
SWIDTH 389 0
DWIDTH 6 0
BBX 6 7 0 0
BITMAP
7c
48
10
20
40
88
f8
ENDCHAR
STARTCHAR braceleft
ENCODING 123
SWIDTH 400 0
DWIDTH 6 0
BBX 6 13 0 -3
BITMAP
0c
10
10
20
20
20
c0
40
40
80
80
80
60
ENDCHAR
STARTCHAR bar
ENCODING 124
SWIDTH 275 0
DWIDTH 4 0
BBX 4 13 0 -3
BITMAP
10
10
10
20
20
20
40
40
40
40
80
80
80
ENDCHAR
STARTCHAR braceright
ENCODING 125
SWIDTH 400 0
DWIDTH 6 0
BBX 6 13 -1 -3
BITMAP
18
04
04
04
08
08
0c
10
10
10
20
20
c0
ENDCHAR
STARTCHAR asciitilde
ENCODING 126
SWIDTH 541 0
DWIDTH 8 0
BBX 6 2 1 3
BITMAP
64
98
ENDCHAR
STARTCHAR nobreakspace
ENCODING 160
SWIDTH 250 0
DWIDTH 3 0
BBX 1 1 0 0
BITMAP
00
ENDCHAR
STARTCHAR Aogonek
ENCODING 161
SWIDTH 611 0
DWIDTH 9 0
BBX 9 13 -1 -3
BITMAP
0100
0300
0500
0900
0900
1100
3f00
2100
4100
e380
0800
1200
0c00
ENDCHAR
STARTCHAR breve
ENCODING 162
SWIDTH 333 0
DWIDTH 5 0
BBX 4 2 1 8
BITMAP
90
e0
ENDCHAR
STARTCHAR Lstroke
ENCODING 163
SWIDTH 556 0
DWIDTH 8 0
BBX 7 10 0 0
BITMAP
38
10
14
38
30
60
a0
40
42
fc
ENDCHAR
STARTCHAR currency
ENCODING 164
SWIDTH 500 0
DWIDTH 7 0
BBX 5 6 1 2
BITMAP
88
70
88
88
70
88
ENDCHAR
STARTCHAR Lcaron
ENCODING 165
SWIDTH 617 0
DWIDTH 9 0
BBX 8 11 0 0
BITMAP
03
39
12
10
20
20
20
40
40
42
fc
ENDCHAR
STARTCHAR Sacute
ENCODING 166
SWIDTH 500 0
DWIDTH 7 0
BBX 7 14 0 0
BITMAP
02
06
08
00
1a
26
22
20
10
08
04
84
c4
b8
ENDCHAR
STARTCHAR section
ENCODING 167
SWIDTH 500 0
DWIDTH 7 0
BBX 7 13 0 -2
BITMAP
1c
36
26
30
68
4c
44
64
2c
18
c8
d8
70
ENDCHAR
STARTCHAR diaeresis
ENCODING 168
SWIDTH 333 0
DWIDTH 5 0
BBX 3 2 2 8
BITMAP
a0
a0
ENDCHAR
STARTCHAR Scaron
ENCODING 169
SWIDTH 500 0
DWIDTH 7 0
BBX 7 14 0 0
BITMAP
12
0c
08
00
1a
26
22
20
10
08
04
84
c4
b8
ENDCHAR
STARTCHAR Scedilla
ENCODING 170
SWIDTH 500 0
DWIDTH 7 0
BBX 7 13 0 -3
BITMAP
1a
26
22
20
10
08
04
84
c4
b8
08
24
18
ENDCHAR
STARTCHAR Tcaron
ENCODING 171
SWIDTH 556 0
DWIDTH 8 0
BBX 7 14 1 0
BITMAP
24
18
10
00
fe
92
10
20
20
20
40
40
40
e0
ENDCHAR
STARTCHAR Zacute
ENCODING 172
SWIDTH 556 0
DWIDTH 8 0
BBX 8 14 0 0
BITMAP
02
06
08
00
7f
41
02
04
08
10
20
40
82
fe
ENDCHAR
STARTCHAR hyphen
ENCODING 173
SWIDTH 333 0
DWIDTH 5 0
BBX 3 1 1 3
BITMAP
e0
ENDCHAR
STARTCHAR Zcaron
ENCODING 174
SWIDTH 556 0
DWIDTH 8 0
BBX 8 14 0 0
BITMAP
12
0c
08
00
7f
41
02
04
08
10
20
40
82
fe
ENDCHAR
STARTCHAR Zabovedot
ENCODING 175
SWIDTH 556 0
DWIDTH 8 0
BBX 8 13 0 0
BITMAP
08
08
00
7f
41
02
04
08
10
20
40
82
fe
ENDCHAR
STARTCHAR degree
ENCODING 176
SWIDTH 400 0
DWIDTH 6 0
BBX 4 4 1 6
BITMAP
60
90
90
60
ENDCHAR
STARTCHAR aogonek
ENCODING 177
SWIDTH 500 0
DWIDTH 7 0
BBX 7 10 0 -3
BITMAP
1a
6c
44
88
98
aa
4c
10
24
18
ENDCHAR
STARTCHAR ogonek
ENCODING 178
SWIDTH 333 0
DWIDTH 4 0
BBX 4 3 -1 -3
BITMAP
40
90
60
ENDCHAR
STARTCHAR lstroke
ENCODING 179
SWIDTH 278 0
DWIDTH 4 0
BBX 4 10 0 0
BITMAP
30
10
20
30
60
c0
40
80
a0
40
ENDCHAR
STARTCHAR acute
ENCODING 180
SWIDTH 333 0
DWIDTH 4 0
BBX 3 3 2 8
BITMAP
20
60
80
ENDCHAR
STARTCHAR lcaron
ENCODING 181
SWIDTH 480 0
DWIDTH 7 0
BBX 7 11 0 0
BITMAP
06
32
14
20
20
40
40
40
80
a0
40
ENDCHAR
STARTCHAR sacute
ENCODING 182
SWIDTH 389 0
DWIDTH 6 0
BBX 5 11 0 0
BITMAP
08
18
20
00
38
48
40
20
10
90
e0
ENDCHAR
STARTCHAR caron
ENCODING 183
SWIDTH 333 0
DWIDTH 5 0
BBX 4 3 1 8
BITMAP
90
60
40
ENDCHAR
STARTCHAR cedilla
ENCODING 184
SWIDTH 333 0
DWIDTH 5 0
BBX 4 3 -1 -3
BITMAP
20
90
60
ENDCHAR
STARTCHAR scaron
ENCODING 185
SWIDTH 389 0
DWIDTH 6 0
BBX 5 11 0 0
BITMAP
48
30
20
00
38
48
40
20
10
90
e0
ENDCHAR
STARTCHAR scedilla
ENCODING 186
SWIDTH 389 0
DWIDTH 6 0
BBX 5 10 0 -3
BITMAP
38
48
40
20
10
90
e0
10
48
30
ENDCHAR
STARTCHAR tcaron
ENCODING 187
SWIDTH 480 0
DWIDTH 7 0
BBX 7 11 0 0
BITMAP
06
02
14
10
78
20
40
40
80
a0
c0
ENDCHAR
STARTCHAR zacute
ENCODING 188
SWIDTH 389 0
DWIDTH 6 0
BBX 6 11 0 0
BITMAP
04
0c
10
00
7c
48
10
20
40
88
f8
ENDCHAR
STARTCHAR doubleacute
ENCODING 189
SWIDTH 333 0
DWIDTH 5 0
BBX 5 3 1 8
BITMAP
28
50
a0
ENDCHAR
STARTCHAR zcaron
ENCODING 190
SWIDTH 389 0
DWIDTH 6 0
BBX 6 11 0 0
BITMAP
24
18
10
00
7c
48
10
20
40
88
f8
ENDCHAR
STARTCHAR zabovedot
ENCODING 191
SWIDTH 389 0
DWIDTH 6 0
BBX 6 10 0 0
BITMAP
10
10
00
7c
48
10
20
40
88
f8
ENDCHAR
STARTCHAR Racute
ENCODING 192
SWIDTH 611 0
DWIDTH 9 0
BBX 9 14 0 0
BITMAP
0100
0300
0400
0000
3f00
1080
1080
2100
3e00
2800
4400
4400
4200
e300
ENDCHAR
STARTCHAR Aacute
ENCODING 193
SWIDTH 611 0
DWIDTH 9 0
BBX 10 14 -1 0
BITMAP
0040
00c0
0100
0000
0100
0300
0500
0900
0900
1100
3f00
2100
4100
e380
ENDCHAR
STARTCHAR Acircumflex
ENCODING 194
SWIDTH 611 0
DWIDTH 9 0
BBX 9 14 -1 0
BITMAP
0100
0300
0480
0000
0100
0300
0500
0900
0900
1100
3f00
2100
4100
e380
ENDCHAR
STARTCHAR Abreve
ENCODING 195
SWIDTH 611 0
DWIDTH 9 0
BBX 10 13 -1 0
BITMAP
0240
0380
0000
0100
0300
0500
0900
0900
1100
3f00
2100
4100
e380
ENDCHAR
STARTCHAR Adiaeresis
ENCODING 196
SWIDTH 611 0
DWIDTH 9 0
BBX 10 13 -1 0
BITMAP
0240
0240
0000
0100
0300
0500
0900
0900
1100
3f00
2100
4100
e380
ENDCHAR
STARTCHAR Lacute
ENCODING 197
SWIDTH 556 0
DWIDTH 8 0
BBX 7 14 0 0
BITMAP
04
0c
10
00
38
10
10
20
20
20
40
40
42
fc
ENDCHAR
STARTCHAR Cacute
ENCODING 198
SWIDTH 667 0
DWIDTH 9 0
BBX 9 14 1 0
BITMAP
0100
0300
0400
0000
1e80
3100
4100
4000
8000
8000
8000
8000
c400
7800
ENDCHAR
STARTCHAR Ccedilla
ENCODING 199
SWIDTH 667 0
DWIDTH 9 0
BBX 9 13 1 -3
BITMAP
1e80
3100
4100
4000
8000
8000
8000
8000
c400
7c00
2000
9000
6000
ENDCHAR
STARTCHAR Ccaron
ENCODING 200
SWIDTH 667 0
DWIDTH 9 0
BBX 9 14 1 0
BITMAP
0900
0600
0400
0000
1e80
3100
4100
4000
8000
8000
8000
8000
c400
7800
ENDCHAR
STARTCHAR Eacute
ENCODING 201
SWIDTH 611 0
DWIDTH 9 0
BBX 9 14 0 0
BITMAP
0100
0300
0400
0000
3f80
1080
1000
2200
3e00
2400
4000
4000
4100
fe00
ENDCHAR
STARTCHAR Eogonek
ENCODING 202
SWIDTH 611 0
DWIDTH 9 0
BBX 9 13 0 -3
BITMAP
3f80
1080
1000
2200
3e00
2400
4000
4000
4100
fe00
0800
1200
0c00
ENDCHAR
STARTCHAR Ediaeresis
ENCODING 203
SWIDTH 611 0
DWIDTH 9 0
BBX 9 13 0 0
BITMAP
0900
0900
0000
3f80
1080
1000
2200
3e00
2400
4000
4000
4100
fe00
ENDCHAR
STARTCHAR Ecaron
ENCODING 204
SWIDTH 611 0
DWIDTH 9 0
BBX 9 14 0 0
BITMAP
0900
0600
0400
0000
3f80
1080
1000
2200
3e00
2400
4000
4000
4100
fe00
ENDCHAR
STARTCHAR Iacute
ENCODING 205
SWIDTH 333 0
DWIDTH 5 0
BBX 6 14 0 0
BITMAP
04
0c
10
00
38
10
10
20
20
20
40
40
40
e0
ENDCHAR
STARTCHAR Icircumflex
ENCODING 206
SWIDTH 333 0
DWIDTH 5 0
BBX 6 14 0 0
BITMAP
08
18
24
00
38
10
10
20
20
20
40
40
40
e0
ENDCHAR
STARTCHAR Dcaron
ENCODING 207
SWIDTH 722 0
DWIDTH 10 0
BBX 9 14 0 0
BITMAP
0900
0600
0400
0000
3f00
1180
1080
2080
2080
2080
4100
4100
4600
f800
ENDCHAR
STARTCHAR Dstroke
ENCODING 208
SWIDTH 722 0
DWIDTH 10 0
BBX 9 10 0 0
BITMAP
3f00
1180
1080
1080
7880
2080
2100
4100
4600
f800
ENDCHAR
STARTCHAR Nacute
ENCODING 209
SWIDTH 667 0
DWIDTH 11 0
BBX 11 14 0 0
BITMAP
0080
0180
0200
0000
30e0
1040
1040
2880
2880
2480
4500
4500
4300
e100
ENDCHAR
STARTCHAR Ncaron
ENCODING 210
SWIDTH 667 0
DWIDTH 11 0
BBX 11 14 0 0
BITMAP
0480
0300
0200
0000
30e0
1040
1040
2880
2880
2480
4500
4500
4300
e100
ENDCHAR
STARTCHAR Oacute
ENCODING 211
SWIDTH 722 0
DWIDTH 10 0
BBX 9 14 0 0
BITMAP
0100
0300
0400
0000
0e00
3100
6080
4080
c080
8180
8100
8300
4600
3800
ENDCHAR
STARTCHAR Ocircumflex
ENCODING 212
SWIDTH 722 0
DWIDTH 10 0
BBX 9 14 0 0
BITMAP
0200
0600
0900
0000
0e00
3100
6080
4080
c080
8180
8100
8300
4600
3800
ENDCHAR
STARTCHAR Odoubleacute
ENCODING 213
SWIDTH 722 0
DWIDTH 10 0
BBX 9 14 0 0
BITMAP
0280
0500
0a00
0000
0e00
3100
6080
4080
c080
8180
8100
8300
4600
3800
ENDCHAR
STARTCHAR Odiaeresis
ENCODING 214
SWIDTH 722 0
DWIDTH 10 0
BBX 9 13 0 0
BITMAP
0900
0900
0000
0e00
3100
6080
4080
c080
8180
8100
8300
4600
3800
ENDCHAR
STARTCHAR multiply
ENCODING 215
SWIDTH 675 0
DWIDTH 10 0
BBX 7 7 1 0
BITMAP
82
44
28
10
28
44
82
ENDCHAR
STARTCHAR Rcaron
ENCODING 216
SWIDTH 611 0
DWIDTH 9 0
BBX 9 14 0 0
BITMAP
0900
0600
0400
0000
3f00
1080
1080
2100
3e00
2800
4400
4400
4200
e300
ENDCHAR
STARTCHAR Uring
ENCODING 217
SWIDTH 722 0
DWIDTH 10 0
BBX 10 14 1 0
BITMAP
0600
0900
0600
0000
79c0
2080
2100
4100
4100
4200
8200
8200
8400
7800
ENDCHAR
STARTCHAR Uacute
ENCODING 218
SWIDTH 722 0
DWIDTH 10 0
BBX 10 14 1 0
BITMAP
0100
0300
0400
0000
79c0
2080
2100
4100
4100
4200
8200
8200
8400
7800
ENDCHAR
STARTCHAR Udoubleacute
ENCODING 219
SWIDTH 722 0
DWIDTH 10 0
BBX 10 14 1 0
BITMAP
0280
0500
0a00
0000
79c0
2080
2100
4100
4100
4200
8200
8200
8400
7800
ENDCHAR
STARTCHAR Udiaeresis
ENCODING 220
SWIDTH 722 0
DWIDTH 10 0
BBX 10 13 1 0
BITMAP
0900
0900
0000
79c0
2080
2100
4100
4100
4200
8200
8200
8400
7800
ENDCHAR
STARTCHAR Yacute
ENCODING 221
SWIDTH 556 0
DWIDTH 8 0
BBX 9 14 0 0
BITMAP
0200
0600
0800
0000
e380
4100
2200
1400
1800
1000
1000
2000
2000
7000
ENDCHAR
STARTCHAR Tcedilla
ENCODING 222
SWIDTH 556 0
DWIDTH 8 0
BBX 7 13 1 -3
BITMAP
fe
92
10
20
20
20
40
40
40
e0
08
24
18
ENDCHAR
STARTCHAR ssharp
ENCODING 223
SWIDTH 500 0
DWIDTH 7 0
BBX 9 13 -3 -3
BITMAP
0300
0480
0480
0900
0b00
0880
1080
1080
1100
1600
2000
a000
c000
ENDCHAR
STARTCHAR racute
ENCODING 224
SWIDTH 389 0
DWIDTH 5 0
BBX 5 11 0 0
BITMAP
08
18
20
00
58
20
40
40
80
80
80
ENDCHAR
STARTCHAR aacute
ENCODING 225
SWIDTH 500 0
DWIDTH 7 0
BBX 7 11 0 0
BITMAP
02
06
08
00
1a
6c
44
88
98
aa
4c
ENDCHAR
STARTCHAR acircumflex
ENCODING 226
SWIDTH 500 0
DWIDTH 7 0
BBX 7 11 0 0
BITMAP
04
0c
12
00
1a
6c
44
88
98
aa
4c
ENDCHAR
STARTCHAR abreve
ENCODING 227
SWIDTH 500 0
DWIDTH 7 0
BBX 7 10 0 0
BITMAP
24
38
00
1a
6c
44
88
98
aa
4c
ENDCHAR
STARTCHAR adiaeresis
ENCODING 228
SWIDTH 500 0
DWIDTH 7 0
BBX 7 10 0 0
BITMAP
14
14
00
1a
6c
44
88
98
aa
4c
ENDCHAR
STARTCHAR lacute
ENCODING 229
SWIDTH 278 0
DWIDTH 4 0
BBX 6 14 0 0
BITMAP
04
0c
10
00
30
10
20
20
40
40
40
80
a0
40
ENDCHAR
STARTCHAR cacute
ENCODING 230
SWIDTH 444 0
DWIDTH 6 0
BBX 6 11 0 0
BITMAP
04
0c
10
00
1c
64
40
80
80
c8
70
ENDCHAR
STARTCHAR ccedilla
ENCODING 231
SWIDTH 444 0
DWIDTH 6 0
BBX 6 10 0 -3
BITMAP
1c
64
40
80
80
c8
78
20
90
60
ENDCHAR
STARTCHAR ccaron
ENCODING 232
SWIDTH 444 0
DWIDTH 6 0
BBX 6 11 0 0
BITMAP
24
18
10
00
1c
64
40
80
80
c8
70
ENDCHAR
STARTCHAR eacute
ENCODING 233
SWIDTH 444 0
DWIDTH 7 0
BBX 7 11 0 0
BITMAP
02
06
08
00
18
64
4c
f0
80
c8
70
ENDCHAR
STARTCHAR eogonek
ENCODING 234
SWIDTH 444 0
DWIDTH 7 0
BBX 6 10 0 -3
BITMAP
18
64
4c
f0
80
c8
70
20
48
30
ENDCHAR
STARTCHAR ediaeresis
ENCODING 235
SWIDTH 444 0
DWIDTH 7 0
BBX 6 10 0 0
BITMAP
28
28
00
18
64
4c
f0
80
c8
70
ENDCHAR
STARTCHAR ecaron
ENCODING 236
SWIDTH 444 0
DWIDTH 7 0
BBX 6 11 0 0
BITMAP
24
18
10
00
18
64
4c
f0
80
c8
70
ENDCHAR
STARTCHAR iacute
ENCODING 237
SWIDTH 278 0
DWIDTH 4 0
BBX 5 11 0 0
BITMAP
08
18
20
00
60
20
40
40
80
a0
c0
ENDCHAR
STARTCHAR icircumflex
ENCODING 238
SWIDTH 278 0
DWIDTH 4 0
BBX 5 11 0 0
BITMAP
10
30
48
00
60
20
40
40
80
a0
c0
ENDCHAR
STARTCHAR dcaron
ENCODING 239
SWIDTH 685 0
DWIDTH 10 0
BBX 10 11 0 0
BITMAP
00c0
0640
0280
0400
3400
4c00
8800
8800
9000
b400
5800
ENDCHAR
STARTCHAR dstroke
ENCODING 240
SWIDTH 617 0
DWIDTH 9 0
BBX 9 10 0 0
BITMAP
0200
1f80
0400
3400
4c00
8800
8800
9000
b400
5800
ENDCHAR
STARTCHAR nacute
ENCODING 241
SWIDTH 500 0
DWIDTH 7 0
BBX 6 11 0 0
BITMAP
04
0c
10
00
6c
34
64
48
48
94
88
ENDCHAR
STARTCHAR ncaron
ENCODING 242
SWIDTH 500 0
DWIDTH 7 0
BBX 6 11 0 0
BITMAP
24
18
10
00
6c
34
64
48
48
94
88
ENDCHAR
STARTCHAR oacute
ENCODING 243
SWIDTH 500 0
DWIDTH 7 0
BBX 7 11 0 0
BITMAP
02
06
08
00
18
6c
44
84
88
d8
60
ENDCHAR
STARTCHAR ocircumflex
ENCODING 244
SWIDTH 500 0
DWIDTH 7 0
BBX 6 11 0 0
BITMAP
08
18
24
00
18
6c
44
84
88
d8
60
ENDCHAR
STARTCHAR odoubleacute
ENCODING 245
SWIDTH 500 0
DWIDTH 7 0
BBX 7 11 0 0
BITMAP
0a
14
28
00
18
6c
44
84
88
d8
60
ENDCHAR
STARTCHAR odiaeresis
ENCODING 246
SWIDTH 500 0
DWIDTH 7 0
BBX 6 10 0 0
BITMAP
14
14
00
18
6c
44
84
88
d8
60
ENDCHAR
STARTCHAR division
ENCODING 247
SWIDTH 675 0
DWIDTH 10 0
BBX 7 7 1 0
BITMAP
10
10
00
fe
00
10
10
ENDCHAR
STARTCHAR rcaron
ENCODING 248
SWIDTH 389 0
DWIDTH 5 0
BBX 5 11 0 0
BITMAP
48
30
20
00
58
20
40
40
80
80
80
ENDCHAR
STARTCHAR uring
ENCODING 249
SWIDTH 500 0
DWIDTH 7 0
BBX 6 11 0 0
BITMAP
18
24
18
00
64
24
48
48
90
b4
d8
ENDCHAR
STARTCHAR uacute
ENCODING 250
SWIDTH 500 0
DWIDTH 7 0
BBX 7 11 0 0
BITMAP
02
06
08
00
64
24
48
48
90
b4
d8
ENDCHAR
STARTCHAR udoubleacute
ENCODING 251
SWIDTH 500 0
DWIDTH 7 0
BBX 7 11 0 0
BITMAP
0a
14
28
00
64
24
48
48
90
b4
d8
ENDCHAR
STARTCHAR udiaeresis
ENCODING 252
SWIDTH 500 0
DWIDTH 7 0
BBX 6 10 0 0
BITMAP
14
14
00
64
24
48
48
90
b4
d8
ENDCHAR
STARTCHAR yacute
ENCODING 253
SWIDTH 444 0
DWIDTH 7 0
BBX 7 14 -1 -3
BITMAP
02
06
08
00
66
22
22
24
24
28
10
10
a0
c0
ENDCHAR
STARTCHAR tcedilla
ENCODING 254
SWIDTH 278 0
DWIDTH 5 0
BBX 5 12 0 -3
BITMAP
10
10
78
20
40
40
80
a0
c0
10
48
30
ENDCHAR
STARTCHAR abovedot
ENCODING 255
SWIDTH 333 0
DWIDTH 4 0
BBX 1 2 2 8
BITMAP
80
80
ENDCHAR
ENDFONT
